<?xml version="1.0" encoding="UTF-8"?>
<svg xmlns="http://www.w3.org/2000/svg" xmlns:xlink="http://www.w3.org/1999/xlink" width="77pt" height="86pt" viewBox="0 0 77 86" version="1.1">
<defs>
<clipPath id="clip1">
  <path d="M 0 0.621094 L 76.261719 0.621094 L 76.261719 86 L 0 86 Z M 0 0.621094 "/>
</clipPath>
<clipPath id="clip2">
  <path d="M 0 0.621094 L 76.261719 0.621094 L 76.261719 28 L 0 28 Z M 0 0.621094 "/>
</clipPath>
<clipPath id="clip3">
  <path d="M 0 22 L 76.261719 22 L 76.261719 28 L 0 28 Z M 0 22 "/>
</clipPath>
<clipPath id="clip4">
  <path d="M 0 0.621094 L 76.261719 0.621094 L 76.261719 86 L 0 86 Z M 0 0.621094 "/>
</clipPath>
</defs>
<g id="surface1">
<g clip-path="url(#clip1)" clip-rule="nonzero">
<path style=" stroke:none;fill-rule:nonzero;fill:rgb(100%,100%,100%);fill-opacity:1;" d="M 0.0078125 0.621094 L 76.261719 0.621094 C 76.261719 0.621094 76.261719 38.082031 76.261719 38.742188 C 75.746094 69.816406 40.925781 86.152344 36.542969 86 C 31.988281 85.84375 -0.09375 69.863281 0 38.582031 C 0.00390625 38.019531 0.0078125 0.621094 0.0078125 0.621094 "/>
</g>
<path style=" stroke:none;fill-rule:nonzero;fill:rgb(100%,100%,100%);fill-opacity:1;" d="M 1.847656 2.648438 L 74.46875 2.648438 C 74.46875 2.648438 74.46875 38.328125 74.46875 38.957031 C 73.976562 68.550781 40.816406 84.105469 36.644531 83.960938 C 32.304688 83.8125 1.75 68.59375 1.839844 38.800781 C 1.839844 38.265625 1.847656 2.648438 1.847656 2.648438 "/>
<path style=" stroke:none;fill-rule:nonzero;fill:rgb(65.87677%,4.710388%,18.739319%);fill-opacity:1;" d="M 1.839844 24.714844 C 1.945312 24.816406 1.84375 2.65625 1.84375 2.65625 L 74.414062 2.65625 C 74.414062 2.65625 74.414062 14.542969 74.414062 24.714844 L 1.839844 24.714844 "/>
<g clip-path="url(#clip2)" clip-rule="nonzero">
<path style="fill:none;stroke-width:5.045;stroke-linecap:butt;stroke-linejoin:miter;stroke:rgb(65.87677%,4.710388%,18.739319%);stroke-opacity:1;stroke-miterlimit:3.8636;" d="M 18.398438 612.851562 C 19.453125 611.835938 18.4375 833.4375 18.4375 833.4375 L 744.140625 833.4375 C 744.140625 833.4375 744.140625 714.570312 744.140625 612.851562 Z M 18.398438 612.851562 " transform="matrix(0.1,0,0,-0.1,0,86)"/>
</g>
<path style=" stroke:none;fill-rule:nonzero;fill:rgb(8.148193%,25.811768%,50.325012%);fill-opacity:1;" d="M 5.90625 57.007812 C 8.699219 62.875 12.148438 67.597656 16.992188 71.617188 L 38.125 50.253906 L 58.464844 71.117188 C 62.65625 67.28125 66.742188 62.640625 69.667969 57.140625 L 38.097656 26.769531 L 6.050781 57.070312 L 5.90625 57.007812 "/>
<path style="fill:none;stroke-width:5.042;stroke-linecap:butt;stroke-linejoin:miter;stroke:rgb(8.148193%,25.811768%,50.325012%);stroke-opacity:1;stroke-miterlimit:3.8636;" d="M 59.0625 289.921875 C 86.992188 231.25 121.484375 184.023438 169.921875 143.828125 L 381.25 357.460938 L 584.648438 148.828125 C 626.5625 187.1875 667.421875 233.59375 696.679688 288.59375 L 380.976562 592.304688 L 60.507812 289.296875 Z M 59.0625 289.921875 " transform="matrix(0.1,0,0,-0.1,0,86)"/>
<g clip-path="url(#clip3)" clip-rule="nonzero">
<path style="fill:none;stroke-width:5.045;stroke-linecap:butt;stroke-linejoin:miter;stroke:rgb(8.148193%,25.811768%,50.325012%);stroke-opacity:1;stroke-miterlimit:3.8636;" d="M 18.398438 611.367188 L 744.101562 611.484375 " transform="matrix(0.1,0,0,-0.1,0,86)"/>
</g>
<path style=" stroke:none;fill-rule:nonzero;fill:rgb(100%,100%,100%);fill-opacity:1;" d="M 56.230469 8.136719 L 58.207031 8.136719 C 59.65625 7.804688 60.179688 6.96875 61.664062 6.96875 C 62.734375 6.96875 63.238281 7.675781 64.023438 7.675781 C 64.683594 7.675781 65.703125 6.917969 66.820312 6.917969 C 67.960938 6.917969 68.527344 7.605469 69.273438 7.925781 C 69.9375 8.207031 70.808594 8.191406 71.726562 8.191406 C 71.703125 8.855469 71.726562 9.246094 71.726562 9.804688 C 71.726562 10.371094 72.488281 10.144531 72.488281 11.070312 C 72.488281 12.039062 71.507812 11.847656 71.507812 12.238281 L 71.46875 15.84375 C 71.519531 16.292969 72.425781 16.351562 72.425781 17.035156 C 72.425781 18.050781 71.414062 17.699219 71.480469 18.503906 C 71.53125 19.09375 71.480469 20.34375 71.480469 20.34375 C 69.53125 20.34375 56.984375 20.460938 56.371094 20.4375 C 56.40625 19.101562 56.613281 19.179688 56.660156 18.539062 C 56.699219 18.019531 55.53125 17.699219 55.53125 16.824219 C 55.53125 16.21875 56.230469 16.257812 56.292969 15.6875 L 56.292969 12.097656 C 56.257812 11.625 55.203125 11.386719 55.238281 10.714844 C 55.28125 9.90625 56.21875 10.011719 56.21875 9.472656 C 56.21875 9.234375 56.242188 8.359375 56.230469 8.136719 "/>
<path style="fill:none;stroke-width:5.045;stroke-linecap:butt;stroke-linejoin:miter;stroke:rgb(8.148193%,25.811768%,50.325012%);stroke-opacity:1;stroke-miterlimit:3.8636;" d="M 562.304688 778.632812 L 582.070312 778.632812 C 596.5625 781.953125 601.796875 790.3125 616.640625 790.3125 C 627.34375 790.3125 632.382812 783.242188 640.234375 783.242188 C 646.835938 783.242188 657.03125 790.820312 668.203125 790.820312 C 679.609375 790.820312 685.273438 783.945312 692.734375 780.742188 C 699.375 777.929688 708.085938 778.085938 717.265625 778.085938 C 717.03125 771.445312 717.265625 767.539062 717.265625 761.953125 C 717.265625 756.289062 724.882812 758.554688 724.882812 749.296875 C 724.882812 739.609375 715.078125 741.523438 715.078125 737.617188 L 714.6875 701.5625 C 715.195312 697.070312 724.257812 696.484375 724.257812 689.648438 C 724.257812 679.492188 714.140625 683.007812 714.804688 674.960938 C 715.3125 669.0625 714.804688 656.5625 714.804688 656.5625 C 695.3125 656.5625 569.84375 655.390625 563.710938 655.625 C 564.0625 668.984375 566.132812 668.203125 566.601562 674.609375 C 566.992188 679.804688 555.3125 683.007812 555.3125 691.757812 C 555.3125 697.8125 562.304688 697.421875 562.929688 703.125 L 562.929688 739.023438 C 562.578125 743.75 552.03125 746.132812 552.382812 752.851562 C 552.8125 760.9375 562.1875 759.882812 562.1875 765.273438 C 562.1875 767.65625 562.421875 776.40625 562.304688 778.632812 Z M 562.304688 778.632812 " transform="matrix(0.1,0,0,-0.1,0,86)"/>
<path style="fill:none;stroke-width:5.045;stroke-linecap:butt;stroke-linejoin:miter;stroke:rgb(8.148193%,25.811768%,50.325012%);stroke-opacity:1;stroke-miterlimit:3.8636;" d="M 578.398438 778.046875 C 578.398438 778.046875 578.632812 697.65625 578.398438 678.75 C 578.398438 678.75 695.429688 678.515625 700.585938 678.984375 C 700.585938 700.390625 700.46875 778.632812 700.46875 778.632812 " transform="matrix(0.1,0,0,-0.1,0,86)"/>
<path style="fill:none;stroke-width:5.045;stroke-linecap:butt;stroke-linejoin:miter;stroke:rgb(8.148193%,25.811768%,50.325012%);stroke-opacity:1;stroke-miterlimit:3.8636;" d="M 639.609375 783.007812 L 639.609375 678.515625 " transform="matrix(0.1,0,0,-0.1,0,86)"/>
<path style=" stroke:none;fill-rule:nonzero;fill:rgb(8.148193%,25.811768%,50.325012%);fill-opacity:1;" d="M 64.148438 16.859375 C 64.660156 16.882812 65.605469 17.230469 66.527344 17.507812 C 67.714844 17.871094 68.976562 17.617188 69.910156 17.804688 C 70.207031 17.863281 64.148438 17.910156 64.148438 17.910156 C 64.167969 16.742188 64.148438 16.859375 64.148438 16.859375 "/>
<path style="fill:none;stroke-width:5.045;stroke-linecap:butt;stroke-linejoin:miter;stroke:rgb(8.148193%,25.811768%,50.325012%);stroke-opacity:1;stroke-miterlimit:3.8636;" d="M 641.484375 691.40625 C 646.601562 691.171875 656.054688 687.695312 665.273438 684.921875 C 677.148438 681.289062 689.765625 683.828125 699.101562 681.953125 C 702.070312 681.367188 641.484375 680.898438 641.484375 680.898438 C 641.679688 692.578125 641.484375 691.40625 641.484375 691.40625 Z M 641.484375 691.40625 " transform="matrix(0.1,0,0,-0.1,0,86)"/>
<path style=" stroke:none;fill-rule:nonzero;fill:rgb(8.148193%,25.811768%,50.325012%);fill-opacity:1;" d="M 63.273438 18.40625 C 63.273438 18.148438 63.578125 17.933594 63.957031 17.933594 C 64.332031 17.933594 64.636719 18.148438 64.636719 18.40625 C 64.636719 18.667969 64.332031 18.878906 63.957031 18.878906 C 63.578125 18.878906 63.273438 18.667969 63.273438 18.40625 "/>
<path style="fill:none;stroke-width:5.045;stroke-linecap:butt;stroke-linejoin:miter;stroke:rgb(8.148193%,25.811768%,50.325012%);stroke-opacity:1;stroke-miterlimit:3.8636;" d="M 632.734375 675.9375 C 632.734375 678.515625 635.78125 680.664062 639.570312 680.664062 C 643.320312 680.664062 646.367188 678.515625 646.367188 675.9375 C 646.367188 673.320312 643.320312 671.210938 639.570312 671.210938 C 635.78125 671.210938 632.734375 673.320312 632.734375 675.9375 Z M 632.734375 675.9375 " transform="matrix(0.1,0,0,-0.1,0,86)"/>
<path style=" stroke:none;fill-rule:nonzero;fill:rgb(8.148193%,25.811768%,50.325012%);fill-opacity:1;" d="M 63.621094 16.859375 C 63.105469 16.882812 62.160156 17.230469 61.238281 17.507812 C 60.050781 17.871094 58.789062 17.617188 57.855469 17.804688 C 57.558594 17.863281 63.621094 17.910156 63.621094 17.910156 C 63.597656 16.742188 63.621094 16.859375 63.621094 16.859375 "/>
<path style="fill:none;stroke-width:5.045;stroke-linecap:butt;stroke-linejoin:miter;stroke:rgb(8.148193%,25.811768%,50.325012%);stroke-opacity:1;stroke-miterlimit:3.8636;" d="M 636.210938 691.40625 C 631.054688 691.171875 621.601562 687.695312 612.382812 684.921875 C 600.507812 681.289062 587.890625 683.828125 578.554688 681.953125 C 575.585938 681.367188 636.210938 680.898438 636.210938 680.898438 C 635.976562 692.578125 636.210938 691.40625 636.210938 691.40625 Z M 636.210938 691.40625 " transform="matrix(0.1,0,0,-0.1,0,86)"/>
<path style=" stroke:none;fill-rule:nonzero;fill:rgb(100%,100%,100%);fill-opacity:1;" d="M 23.40625 21.398438 C 23.601562 22.164062 24.179688 22.671875 25.121094 22.671875 C 26.878906 22.671875 28.570312 21.371094 29.589844 20.640625 C 30.386719 20.074219 31.210938 19.46875 31.210938 18.230469 L 31.0625 18.703125 C 31.0625 18.703125 32.4375 17.332031 35.824219 18.417969 C 36.765625 18.71875 40.792969 20.984375 41.664062 21.347656 C 42.410156 21.667969 45.035156 23.550781 49.136719 22.824219 C 49.136719 22.824219 55.394531 21.964844 53.996094 15.519531 C 52.996094 10.910156 53.304688 10.582031 53.6875 9.105469 C 53.539062 9.035156 49.859375 8.207031 49.957031 13.3125 C 48.359375 13.476562 46.324219 14.683594 47.652344 17.851562 C 48.191406 17.046875 48.914062 16.195312 49.90625 16.195312 C 50.53125 16.195312 51.195312 17.09375 51.234375 17.757812 C 51.332031 19.363281 49.710938 20.074219 47.699219 19.742188 C 46.679688 19.574219 45.738281 18.445312 44.335938 17.425781 C 44.582031 17.308594 44.804688 16.480469 44.804688 16.148438 C 44.804688 15.335938 44.105469 14.957031 43.628906 14.683594 C 43.722656 14.402344 43.917969 14.023438 43.917969 13.738281 C 43.917969 13.089844 43 13.136719 42.644531 12.886719 C 42.789062 12.6875 42.789062 12.804688 42.789062 12.507812 C 42.789062 11.5625 42.941406 11.042969 41.027344 11.089844 C 41.183594 10.15625 40.988281 9.554688 40.339844 9.292969 L 38.914062 9.105469 C 38.03125 8.941406 38.910156 8.644531 38.097656 7.859375 C 37.367188 7.160156 36.171875 7.859375 36.171875 7.859375 C 36.171875 7.210938 35.722656 6.695312 34.941406 6.695312 C 34.523438 6.695312 34.007812 6.730469 33.714844 6.882812 L 33.121094 7.355469 C 32.386719 7.355469 32.203125 6.695312 31.355469 6.695312 C 30.511719 6.695312 30.164062 7.355469 29.835938 7.78125 C 29.257812 7.511719 29.183594 7.027344 28.410156 7.027344 C 27.957031 7.027344 27.824219 7.511719 27.628906 7.734375 C 27.121094 8.289062 27.160156 8.867188 26.375 9.148438 L 26.082031 8.636719 C 26.074219 8.601562 26.066406 8.570312 26.054688 8.539062 C 24.902344 9.09375 22.300781 15.027344 22.300781 16.242188 C 22.300781 17.402344 23.308594 16.894531 23.308594 18.136719 C 23.308594 18.867188 22.226562 19.398438 22.226562 20.027344 C 22.226562 20.816406 23.148438 21.207031 23.945312 21.207031 L 23.40625 21.398438 "/>
<path style="fill:none;stroke-width:5.042;stroke-linecap:butt;stroke-linejoin:miter;stroke:rgb(8.148193%,25.811768%,50.325012%);stroke-opacity:1;stroke-miterlimit:3.8636;" d="M 234.0625 646.015625 C 236.015625 638.359375 241.796875 633.28125 251.210938 633.28125 C 268.789062 633.28125 285.703125 646.289062 295.898438 653.59375 C 303.867188 659.257812 312.109375 665.3125 312.109375 677.695312 L 310.625 672.96875 C 310.625 672.96875 324.375 686.679688 358.242188 675.820312 C 367.65625 672.8125 407.929688 650.15625 416.640625 646.523438 C 424.101562 643.320312 450.351562 624.492188 491.367188 631.757812 C 491.367188 631.757812 553.945312 640.351562 539.960938 704.804688 C 529.960938 750.898438 533.046875 754.179688 536.875 768.945312 C 535.390625 769.648438 498.59375 777.929688 499.570312 726.875 C 483.59375 725.234375 463.242188 713.164062 476.523438 681.484375 C 481.914062 689.53125 489.140625 698.046875 499.0625 698.046875 C 505.3125 698.046875 511.953125 689.0625 512.34375 682.421875 C 513.320312 666.367188 497.109375 659.257812 476.992188 662.578125 C 466.796875 664.257812 457.382812 675.546875 443.359375 685.742188 C 445.820312 686.914062 448.046875 695.195312 448.046875 698.515625 C 448.046875 706.640625 441.054688 710.429688 436.289062 713.164062 C 437.226562 715.976562 439.179688 719.765625 439.179688 722.617188 C 439.179688 729.101562 430 728.632812 426.445312 731.132812 C 427.890625 733.125 427.890625 731.953125 427.890625 734.921875 C 427.890625 744.375 429.414062 749.570312 410.273438 749.101562 C 411.835938 758.4375 409.882812 764.453125 403.398438 767.070312 L 389.140625 768.945312 C 380.3125 770.585938 389.101562 773.554688 380.976562 781.40625 C 373.671875 788.398438 361.71875 781.40625 361.71875 781.40625 C 361.71875 787.890625 357.226562 793.046875 349.414062 793.046875 C 345.234375 793.046875 340.078125 792.695312 337.148438 791.171875 L 331.210938 786.445312 C 323.867188 786.445312 322.03125 793.046875 313.554688 793.046875 C 305.117188 793.046875 301.640625 786.445312 298.359375 782.1875 C 292.578125 784.882812 291.835938 789.726562 284.101562 789.726562 C 279.570312 789.726562 278.242188 784.882812 276.289062 782.65625 C 271.210938 777.109375 271.601562 771.328125 263.75 768.515625 L 260.820312 773.632812 C 260.742188 773.984375 260.664062 774.296875 260.546875 774.609375 C 249.023438 769.0625 223.007812 709.726562 223.007812 697.578125 C 223.007812 685.976562 233.085938 691.054688 233.085938 678.632812 C 233.085938 671.328125 222.265625 666.015625 222.265625 659.726562 C 222.265625 651.835938 231.484375 647.929688 239.453125 647.929688 Z M 234.0625 646.015625 " transform="matrix(0.1,0,0,-0.1,0,86)"/>
<path style=" stroke:none;fill-rule:nonzero;fill:rgb(8.148193%,25.811768%,50.325012%);fill-opacity:1;" d="M 26.117188 16.414062 C 26.117188 16.414062 27.394531 16.902344 27.394531 17.167969 C 27.394531 17.527344 26.570312 17.925781 26.019531 18.398438 L 25.332031 18.398438 C 25.578125 17.59375 25.332031 17.886719 25.332031 17.167969 C 25.332031 16.628906 25.902344 16.414062 26.117188 16.414062 "/>
<path style="fill:none;stroke-width:5.045;stroke-linecap:butt;stroke-linejoin:miter;stroke:rgb(8.148193%,25.811768%,50.325012%);stroke-opacity:1;stroke-miterlimit:3.8636;" d="M 261.171875 695.859375 C 261.171875 695.859375 273.945312 690.976562 273.945312 688.320312 C 273.945312 684.726562 265.703125 680.742188 260.195312 676.015625 L 253.320312 676.015625 C 255.78125 684.0625 253.320312 681.132812 253.320312 688.320312 C 253.320312 693.710938 259.023438 695.859375 261.171875 695.859375 Z M 261.171875 695.859375 " transform="matrix(0.1,0,0,-0.1,0,86)"/>
<path style="fill:none;stroke-width:5.045;stroke-linecap:butt;stroke-linejoin:miter;stroke:rgb(8.148193%,25.811768%,50.325012%);stroke-opacity:1;stroke-miterlimit:3.8636;" d="M 307.8125 717.617188 C 314.414062 720.820312 311.367188 728.984375 322.03125 728.984375 C 331.484375 728.984375 335.039062 722.34375 343.632812 722.34375 C 349.414062 722.34375 353.4375 728.046875 361.289062 728.046875 C 368.28125 728.046875 377.460938 718.554688 376.015625 707.226562 C 376.015625 707.226562 400.546875 715.273438 399.570312 688.789062 C 419.179688 695.390625 417.226562 679.21875 419.179688 671.289062 C 421.171875 663.75 433.945312 669.882812 431.953125 653.828125 " transform="matrix(0.1,0,0,-0.1,0,86)"/>
<path style=" stroke:none;fill-rule:nonzero;fill:rgb(100%,100%,100%);fill-opacity:1;" d="M 4.585938 8.199219 L 6.5625 8.199219 C 8.011719 7.871094 8.539062 7.03125 10.023438 7.03125 C 11.089844 7.03125 11.59375 7.738281 12.378906 7.738281 C 13.039062 7.738281 14.058594 6.984375 15.175781 6.984375 C 16.316406 6.984375 16.882812 7.667969 17.628906 7.988281 C 18.289062 8.273438 19.160156 8.257812 20.082031 8.257812 C 20.058594 8.917969 20.082031 9.3125 20.082031 9.867188 C 20.082031 10.433594 20.84375 10.210938 20.84375 11.132812 C 20.84375 12.101562 19.859375 11.910156 19.859375 12.300781 L 19.824219 15.90625 C 19.875 16.355469 20.78125 16.414062 20.78125 17.101562 C 20.78125 18.117188 19.773438 17.765625 19.839844 18.566406 C 19.886719 19.15625 19.839844 20.410156 19.839844 20.410156 C 17.886719 20.410156 5.605469 20.421875 4.992188 20.398438 C 5.027344 19.0625 4.96875 19.246094 5.015625 18.601562 C 5.050781 18.082031 3.886719 17.761719 3.886719 16.886719 C 3.886719 16.285156 4.585938 16.320312 4.648438 15.753906 L 4.648438 12.160156 C 4.613281 11.6875 3.554688 11.449219 3.59375 10.777344 C 3.636719 9.972656 4.574219 10.074219 4.574219 9.535156 C 4.574219 9.300781 4.597656 8.425781 4.585938 8.199219 "/>
<path style="fill:none;stroke-width:5.045;stroke-linecap:butt;stroke-linejoin:miter;stroke:rgb(8.148193%,25.811768%,50.325012%);stroke-opacity:1;stroke-miterlimit:3.8636;" d="M 45.859375 778.007812 L 65.625 778.007812 C 80.117188 781.289062 85.390625 789.6875 100.234375 789.6875 C 110.898438 789.6875 115.9375 782.617188 123.789062 782.617188 C 130.390625 782.617188 140.585938 790.15625 151.757812 790.15625 C 163.164062 790.15625 168.828125 783.320312 176.289062 780.117188 C 182.890625 777.265625 191.601562 777.421875 200.820312 777.421875 C 200.585938 770.820312 200.820312 766.875 200.820312 761.328125 C 200.820312 755.664062 208.4375 757.890625 208.4375 748.671875 C 208.4375 738.984375 198.59375 740.898438 198.59375 736.992188 L 198.242188 700.9375 C 198.75 696.445312 207.8125 695.859375 207.8125 688.984375 C 207.8125 678.828125 197.734375 682.34375 198.398438 674.335938 C 198.867188 668.4375 198.398438 655.898438 198.398438 655.898438 C 178.867188 655.898438 56.054688 655.78125 49.921875 656.015625 C 50.273438 669.375 49.6875 667.539062 50.15625 673.984375 C 50.507812 679.179688 38.867188 682.382812 38.867188 691.132812 C 38.867188 697.148438 45.859375 696.796875 46.484375 702.460938 L 46.484375 738.398438 C 46.132812 743.125 35.546875 745.507812 35.9375 752.226562 C 36.367188 760.273438 45.742188 759.257812 45.742188 764.648438 C 45.742188 766.992188 45.976562 775.742188 45.859375 778.007812 Z M 45.859375 778.007812 " transform="matrix(0.1,0,0,-0.1,0,86)"/>
<path style="fill:none;stroke-width:5.045;stroke-linecap:butt;stroke-linejoin:miter;stroke:rgb(8.148193%,25.811768%,50.325012%);stroke-opacity:1;stroke-miterlimit:3.8636;" d="M 61.953125 777.382812 C 61.953125 777.382812 62.1875 697.03125 61.953125 678.125 C 61.953125 678.125 178.984375 677.890625 184.140625 678.359375 C 184.140625 699.765625 184.023438 778.007812 184.023438 778.007812 " transform="matrix(0.1,0,0,-0.1,0,86)"/>
<path style="fill:none;stroke-width:5.045;stroke-linecap:butt;stroke-linejoin:miter;stroke:rgb(8.148193%,25.811768%,50.325012%);stroke-opacity:1;stroke-miterlimit:3.8636;" d="M 123.164062 782.382812 L 123.164062 677.890625 " transform="matrix(0.1,0,0,-0.1,0,86)"/>
<path style=" stroke:none;fill-rule:nonzero;fill:rgb(8.148193%,25.811768%,50.325012%);fill-opacity:1;" d="M 12.5 16.921875 C 13.015625 16.945312 13.960938 17.292969 14.882812 17.574219 C 16.070312 17.933594 17.332031 17.679688 18.265625 17.867188 C 18.5625 17.925781 12.5 17.972656 12.5 17.972656 C 12.523438 16.804688 12.5 16.921875 12.5 16.921875 "/>
<path style="fill:none;stroke-width:5.045;stroke-linecap:butt;stroke-linejoin:miter;stroke:rgb(8.148193%,25.811768%,50.325012%);stroke-opacity:1;stroke-miterlimit:3.8636;" d="M 125 690.78125 C 130.15625 690.546875 139.609375 687.070312 148.828125 684.257812 C 160.703125 680.664062 173.320312 683.203125 182.65625 681.328125 C 185.625 680.742188 125 680.273438 125 680.273438 C 125.234375 691.953125 125 690.78125 125 690.78125 Z M 125 690.78125 " transform="matrix(0.1,0,0,-0.1,0,86)"/>
<path style=" stroke:none;fill-rule:nonzero;fill:rgb(8.148193%,25.811768%,50.325012%);fill-opacity:1;" d="M 11.628906 18.472656 C 11.628906 18.210938 11.933594 17.996094 12.308594 17.996094 C 12.6875 17.996094 12.988281 18.210938 12.988281 18.472656 C 12.988281 18.730469 12.6875 18.945312 12.308594 18.945312 C 11.933594 18.945312 11.628906 18.730469 11.628906 18.472656 "/>
<path style="fill:none;stroke-width:5.045;stroke-linecap:butt;stroke-linejoin:miter;stroke:rgb(8.148193%,25.811768%,50.325012%);stroke-opacity:1;stroke-miterlimit:3.8636;" d="M 116.289062 675.273438 C 116.289062 677.890625 119.335938 680.039062 123.085938 680.039062 C 126.875 680.039062 129.882812 677.890625 129.882812 675.273438 C 129.882812 672.695312 126.875 670.546875 123.085938 670.546875 C 119.335938 670.546875 116.289062 672.695312 116.289062 675.273438 Z M 116.289062 675.273438 " transform="matrix(0.1,0,0,-0.1,0,86)"/>
<path style=" stroke:none;fill-rule:nonzero;fill:rgb(8.148193%,25.811768%,50.325012%);fill-opacity:1;" d="M 11.976562 16.921875 C 11.460938 16.945312 10.515625 17.292969 9.59375 17.574219 C 8.40625 17.933594 7.144531 17.679688 6.207031 17.867188 C 5.914062 17.925781 11.976562 17.972656 11.976562 17.972656 C 11.953125 16.804688 11.976562 16.921875 11.976562 16.921875 "/>
<path style="fill:none;stroke-width:5.045;stroke-linecap:butt;stroke-linejoin:miter;stroke:rgb(8.148193%,25.811768%,50.325012%);stroke-opacity:1;stroke-miterlimit:3.8636;" d="M 119.765625 690.78125 C 114.609375 690.546875 105.15625 687.070312 95.9375 684.257812 C 84.0625 680.664062 71.445312 683.203125 62.070312 681.328125 C 59.140625 680.742188 119.765625 680.273438 119.765625 680.273438 C 119.53125 691.953125 119.765625 690.78125 119.765625 690.78125 Z M 119.765625 690.78125 " transform="matrix(0.1,0,0,-0.1,0,86)"/>
<path style=" stroke:none;fill-rule:nonzero;fill:rgb(100%,100%,100%);fill-opacity:1;" d="M 14.316406 54.589844 C 14.316406 51.21875 17.152344 48.484375 20.652344 48.484375 C 24.152344 48.484375 26.988281 51.21875 26.988281 54.589844 C 26.988281 57.960938 24.152344 60.691406 20.652344 60.691406 C 17.152344 60.691406 14.316406 57.960938 14.316406 54.589844 "/>
<path style="fill:none;stroke-width:5.045;stroke-linecap:butt;stroke-linejoin:miter;stroke:rgb(8.148193%,25.811768%,50.325012%);stroke-opacity:1;stroke-miterlimit:3.8636;" d="M 143.164062 314.101562 C 143.164062 347.8125 171.523438 375.15625 206.523438 375.15625 C 241.523438 375.15625 269.882812 347.8125 269.882812 314.101562 C 269.882812 280.390625 241.523438 253.085938 206.523438 253.085938 C 171.523438 253.085938 143.164062 280.390625 143.164062 314.101562 Z M 143.164062 314.101562 " transform="matrix(0.1,0,0,-0.1,0,86)"/>
<path style=" stroke:none;fill-rule:nonzero;fill:rgb(100%,100%,100%);fill-opacity:1;" d="M 31.734375 39.925781 C 31.734375 36.554688 34.574219 33.824219 38.074219 33.824219 C 41.574219 33.824219 44.40625 36.554688 44.40625 39.925781 C 44.40625 43.296875 41.574219 46.03125 38.074219 46.03125 C 34.574219 46.03125 31.734375 43.296875 31.734375 39.925781 "/>
<path style="fill:none;stroke-width:5.042;stroke-linecap:butt;stroke-linejoin:miter;stroke:rgb(8.148193%,25.811768%,50.325012%);stroke-opacity:1;stroke-miterlimit:3.8636;" d="M 317.34375 460.742188 C 317.34375 494.453125 345.742188 521.757812 380.742188 521.757812 C 415.742188 521.757812 444.0625 494.453125 444.0625 460.742188 C 444.0625 427.03125 415.742188 399.6875 380.742188 399.6875 C 345.742188 399.6875 317.34375 427.03125 317.34375 460.742188 Z M 317.34375 460.742188 " transform="matrix(0.1,0,0,-0.1,0,86)"/>
<path style=" stroke:none;fill-rule:nonzero;fill:rgb(100%,100%,100%);fill-opacity:1;" d="M 48.171875 54.589844 C 48.171875 51.21875 51.007812 48.484375 54.507812 48.484375 C 58.007812 48.484375 60.84375 51.21875 60.84375 54.589844 C 60.84375 57.960938 58.007812 60.691406 54.507812 60.691406 C 51.007812 60.691406 48.171875 57.960938 48.171875 54.589844 "/>
<path style="fill:none;stroke-width:5.045;stroke-linecap:butt;stroke-linejoin:miter;stroke:rgb(8.148193%,25.811768%,50.325012%);stroke-opacity:1;stroke-miterlimit:3.8636;" d="M 481.71875 314.101562 C 481.71875 347.8125 510.078125 375.15625 545.078125 375.15625 C 580.078125 375.15625 608.4375 347.8125 608.4375 314.101562 C 608.4375 280.390625 580.078125 253.085938 545.078125 253.085938 C 510.078125 253.085938 481.71875 280.390625 481.71875 314.101562 Z M 481.71875 314.101562 " transform="matrix(0.1,0,0,-0.1,0,86)"/>
<path style="fill:none;stroke-width:5.045;stroke-linecap:butt;stroke-linejoin:miter;stroke:rgb(8.148193%,25.811768%,50.325012%);stroke-opacity:1;stroke-miterlimit:3.8636;" d="M 444.257812 688.242188 C 428.085938 706.054688 413.828125 726.992188 411.367188 728.046875 C 403.398438 731.328125 384.335938 769.140625 333.320312 771.992188 C 320.351562 772.734375 271.5625 767.96875 269.84375 755.46875 " transform="matrix(0.1,0,0,-0.1,0,86)"/>
<path style="fill:none;stroke-width:5.045;stroke-linecap:butt;stroke-linejoin:miter;stroke:rgb(8.148193%,25.811768%,50.325012%);stroke-opacity:1;stroke-miterlimit:3.8636;" d="M 312.421875 674.492188 C 312.617188 675.703125 312.695312 677.03125 312.695312 678.398438 C 312.695312 680.429688 300.742188 679.257812 297.890625 680.117188 C 295.9375 680.703125 303.164062 683.59375 301.914062 683.59375 C 309.257812 686.445312 328.125 694.726562 321.5625 701.09375 C 315.15625 707.226562 311.367188 713.710938 307.8125 717.617188 C 303.007812 722.8125 297.34375 725.664062 288.632812 725.664062 C 281.171875 725.664062 269.0625 712.695312 264.023438 709.140625 C 267.695312 712.695312 278.359375 721.875 278.359375 729.453125 C 278.359375 746.484375 264.726562 761.25 261.171875 775.3125 " transform="matrix(0.1,0,0,-0.1,0,86)"/>
<path style="fill:none;stroke-width:5.045;stroke-linecap:butt;stroke-linejoin:miter;stroke:rgb(8.148193%,25.811768%,50.325012%);stroke-opacity:1;stroke-miterlimit:3.8636;" d="M 239.0625 648.59375 C 252.539062 648.59375 260.15625 649.570312 266.523438 652.851562 C 273.515625 656.523438 286.132812 664.453125 289.101562 671.289062 " transform="matrix(0.1,0,0,-0.1,0,86)"/>
<g clip-path="url(#clip4)" clip-rule="nonzero">
<path style="fill:none;stroke-width:10;stroke-linecap:butt;stroke-linejoin:miter;stroke:rgb(8.148193%,25.811768%,50.325012%);stroke-opacity:1;stroke-miterlimit:3.8636;" d="M 18.242188 833.4375 L 744.453125 833.4375 C 744.453125 833.4375 744.453125 476.679688 744.453125 470.390625 C 739.570312 174.453125 407.890625 18.90625 366.171875 20.3125 C 322.8125 21.796875 17.265625 174.023438 18.164062 471.914062 C 18.164062 477.265625 18.242188 833.4375 18.242188 833.4375 Z M 18.242188 833.4375 " transform="matrix(0.1,0,0,-0.1,0,86)"/>
</g>
</g>
</svg>
